<?xml version="1.0" encoding="utf-8"?>
<!-- Generator: Adobe Illustrator 24.2.3, SVG Export Plug-In . SVG Version: 6.00 Build 0)  -->
<svg version="1.1" id="Layer_1" xmlns="http://www.w3.org/2000/svg" xmlns:xlink="http://www.w3.org/1999/xlink" x="0px" y="0px"
	 viewBox="0 0 750 750" style="enable-background:new 0 0 750 750;" xml:space="preserve">
<style type="text/css">
	.st0{fill:#EC6716;}
	.st1{fill:#3A5998;}
</style>
<path class="st0" d="M3832.8,163.1c0-2,1.3-3.6,3.7-3.6h18.2c1.2,0,2.2,0.9,2.2,2.1c0,1.2-1.1,2.1-2.2,2.1h-17.6v13h16.7
	c1.2,0,2.2,0.9,2.2,2.1c0,1.2-1.1,2.1-2.2,2.1h-16.7v13.8c0,1.2-0.9,2.2-2.2,2.2c-1.2,0-2.2-1.1-2.2-2.2v-31.6H3832.8z"/>
<path class="st0" d="M3866.3,164.5c-1.5,0-2.6-1.3-2.6-2.7c0-1.5,1.1-2.7,2.6-2.7s2.7,1.2,2.7,2.7
	C3869,163.2,3867.8,164.5,3866.3,164.5 M3868.5,171v23.7c0,1.3-0.9,2.2-2.2,2.2c-1.1,0-2.1-1-2.1-2.2V171c0-1.2,0.9-2.2,2.1-2.2
	C3867.5,168.8,3868.5,169.8,3868.5,171"/>
<path class="st0" d="M3893.1,171c0,0.9-0.6,2-2.1,2c-1,0-2.3-0.4-4.2-0.4c-3,0.1-4.3,1.5-4.3,4.8v17.4c0,1.2-0.9,2.2-2.2,2.2
	c-1.2,0-2.2-1-2.2-2.2v-17.9c0-5.2,3.1-8.4,8.6-8.4c1.8,0,3.6,0.3,4.6,0.6C3892.6,169.3,3893.1,170,3893.1,171"/>
<path class="st0" d="M3920.4,181.5c0,1.9-1,3.1-3.1,3.1h-15.9v0.9c0,5,3.2,7.8,7.9,7.8c1.9,0,4.1-0.5,6.5-1.4
	c1.9-0.7,3.1,0.5,3.1,1.7c0,0.7-0.3,1.3-1.2,1.9c-1.7,1-5.4,1.7-8.4,1.7c-7.3,0-11.7-4.6-12.1-11.4c-0.1-2-0.1-4.7,0.1-6.4
	c0.6-6.9,5.3-11,11.7-11c7,0,11.4,4.8,11.4,11.5V181.5z M3915.6,181c0.4,0,0.6-0.2,0.7-0.6c0.3-4.8-2.6-8.1-7.2-8.1
	c-5.2,0-7.8,3.4-7.6,8.7L3915.6,181L3915.6,181z"/>
<path class="st0" d="M3855.2,610.9c-0.6,0-1.3-0.1-1.9-0.3c-47.5-16.7-78.9-57.6-76.4-99.5c-0.1-1.5-0.1-3.1-0.1-4.8
	c-0.2-3-0.8-24.5,18.8-56.5c1.7-2.7,5.2-3.5,7.9-1.9s3.5,5.2,1.9,7.8c-18.5,30.3-17.1,49.7-17.1,49.8c0,2.2,0.1,3.8,0.1,5.2v0.3v0.3
	c-2.4,37,25.9,73.3,68.7,88.4c3,1,4.5,4.3,3.5,7.3C3859.8,609.5,3857.5,610.9,3855.2,610.9"/>
<path class="st0" d="M3852.2,450.5l2.1-22c2.7-28.2-3.8-44.8-10-53.9c2.6,28.9-19.3,54.3-20.4,55.6c-2.1,2.4-5.7,2.6-8.1,0.6
	c-2.4-2.1-2.6-5.7-0.6-8c1.1-1.3,26.2-30.5,14.9-58.4l-0.7-1.7l1.7-7.5l7.7-0.9l1.6,0.9c1.1,0.6,22.1,12.9,25.3,50.8
	c4.4-10.8,7.8-24.4,6.4-39.3c-2.1-23.4-15.3-45.2-39.2-64.6l-1.6-1.3l-1.8-8.7l8.2-3.2l1.9,0.6c0.2,0.1,22.1,6.9,47.9,22.5
	c2.7,1.6,3.6,5.1,1.9,7.8c-1.6,2.7-5.1,3.5-7.8,1.9c-9.4-5.7-18.2-10.1-25.5-13.5c16.2,17.6,25.3,36.8,27.2,57.4
	c2.9,31.1-12.3,57-19,66.8L3852.2,450.5z"/>
<path class="st0" d="M3957.6,400.4c-2.2,0-4.3-1.3-5.2-3.4c-8.9-20.5-23.2-39.2-42.5-55.5c-2.4-2.1-4.9-4-7.4-5.9s-3-5.5-1-8
	c1.9-2.5,5.5-3,8-1c2.6,2,5.2,4.1,7.8,6.3c20.6,17.4,36,37.5,45.6,59.6c1.3,2.9-0.1,6.3-2.9,7.5
	C3959.2,400.3,3958.4,400.4,3957.6,400.4"/>
<path class="st0" d="M3954.5,503l2.3-8.5c0.7-2.8,1.5-5.7,2.2-8.8c5.7-24.8,5.6-48.5-0.2-70.3c-0.8-3.1,1-6.2,4-7c3.1-0.8,6.2,1,7,4
	c5.8,22,6.3,45.6,1.4,70.3c5.1-7.6,10.9-23,11.5-54.3v-1.9l5-6.4l7.3,3l1,1.4c0.2,0.3,20.8,34.2,20.8,70.8c0,3.2-2.6,5.7-5.7,5.7
	c-3.2,0-5.7-2.5-5.7-5.7c0-19.6-6.7-38.8-12.1-51c-3.1,35.2-13.5,49.1-22.3,54.4c-2.5,1.5-5.2,2.5-7.9,2.9L3954.5,503z"/>
<path class="st0" d="M3933.1,611.1c-2.4,0-4.6-1.5-5.4-3.9c-1-3,0.6-6.2,3.6-7.2c52.9-17.9,69.3-74.4,72.1-85.5
	c0.8-3.1,3.9-4.9,6.9-4.2c3.1,0.8,4.9,3.9,4.2,6.9c-8.7,35.2-34.2,78.3-79.5,93.6C3934.3,611,3933.7,611.1,3933.1,611.1"/>
<path class="st0" d="M3875.1,590.2c-0.5,0-1-0.1-1.5-0.2c-16.7-4.5-26.8-15.8-29.4-32.5c-1.2-9.7,1.7-27.9,19.7-35.9
	c0.1,0,7.3-3.5,12.9-12.6c5-8.2,9.7-22.8,3.6-46.2l-3.5-13.1l11.8,6.7c12.1,6.9,41,28.2,48.3,76.5c0.1,0.9,3.9,24.2-8.4,41.3
	c-3.9,5.5-9.1,9.8-15.4,12.9c-2.8,1.4-6.3,0.2-7.6-2.6c-1.4-2.8-0.2-6.3,2.6-7.6c4.6-2.2,8.3-5.3,11.1-9.3
	c9.6-13.3,6.5-32.7,6.5-32.9c-4.8-31.8-19.8-50.4-31.6-60.5c2.2,19.4-2.6,32.7-7.6,40.9c-7.8,12.7-18.1,17.1-18.2,17.2
	c-14.5,6.4-13,22-12.8,23.8c1.8,12.1,8.7,19.7,21,23.1c3.1,0.8,4.8,4,4,7C3879.9,588.5,3877.6,590.2,3875.1,590.2"/>
<g>
	<path class="st1" d="M712.4,374.3c0.2,187.2-150.1,338.1-337.1,338.5C190.6,713.2,37.4,561,37.6,377.2
		c0.1-187.7,150.1-339.3,336.3-340C560.8,36.5,712.3,187.3,712.4,374.3z M327.6,452.5c0,19.7,1,39.4-0.3,59
		c-1.2,17.1,4.4,24.4,22,22.2c7.4-0.9,15.2-0.9,22.6,0c18,2.2,24.8-3.8,24-22.9c-1.5-35.6,1.1-71.3-1-106.8
		c-1.4-23.3,5.4-31.6,29.2-29.3c33.9,3.2,18.7-25.8,22.8-40.2c6-21.2-13.3-10.7-21.9-13.1c-9.4-2.6-23.1,5.4-28.1-6.3
		c-4.6-11-3-24.7,2.9-35.6c7.7-14.4,22.9-10.5,35.6-10.2c13.6,0.3,16.6-7.1,14.6-17.6c-2.2-11.5,8.5-28.1-9.1-33.7
		c-64.3-20.1-110.8,12.2-113,78.6c-0.5,16.1-1.4,27-22.3,25.1c-18.9-1.7-14.5,14.3-13.3,23.9c1.2,10.1-9.3,29.5,10.3,28.5
		c26.9-1.5,26,12.6,25.1,30.7C327,420.6,327.6,436.5,327.6,452.5z"/>
</g>
</svg>
